<svg width="1024" height="1024" viewBox="0 0 1024 1024" fill="none" xmlns="http://www.w3.org/2000/svg">
<path fill-rule="evenodd" clip-rule="evenodd" d="M278 140.02H395H512V257.02H395H336.5V198.52H278V140.02ZM219.5 257.02V198.52H278V257.02H336.5V315.52H278V257.02H219.5ZM219.5 257.02V315.52H278V767.14H395H512V884.14H395L278 884.14H161V257.02H219.5ZM629 767.14H570.5V708.64H629L629 767.14ZM687.5 767.14H629V825.64H570.5V767.14H512V884.14H629V825.64H687.5V767.14ZM746 708.64V767.14H687.5V708.64H629V650.14H687.5V708.64H746ZM746 650.14V708.64H804.5V650.14H863V533.14H804.5V474.64H687.5H570.5H453.5H336.5V591.64H453.5H570.5H687.5V650.14H746ZM746 650.14L746 591.64V533.14H804.5V591.64V650.14H746ZM629 140.02H512V257.02H629H746H863V140.02H746H629Z" fill="url(#paint0_linear_2_16)"/>
<defs>
<linearGradient id="paint0_linear_2_16" x1="161" y1="139.715" x2="863" y2="884.445" gradientUnits="userSpaceOnUse">
<stop offset="0.09375" stop-color="#FF3434"/>
<stop offset="0.796875" stop-color="#FFCC00"/>
</linearGradient>
</defs>
</svg>
